<mxfile host="app.diagrams.net" modified="2023-04-08T11:21:37.519Z" agent="Mozilla/5.0 (Macintosh; Intel Mac OS X 10_15_7) AppleWebKit/605.1.15 (KHTML, like Gecko) Version/16.3 Safari/605.1.15" etag="S1inpw2LwUSpu_Da-QBL" version="21.1.5" type="google">
  <diagram name="Page-1" id="58cdce13-f638-feb5-8d6f-7d28b1aa9fa0">
    <mxGraphModel grid="1" page="1" gridSize="10" guides="1" tooltips="1" connect="1" arrows="1" fold="1" pageScale="1" pageWidth="1100" pageHeight="850" background="none" math="0" shadow="0">
      <root>
        <mxCell id="0" />
        <mxCell id="1" parent="0" />
        <mxCell id="b5D-Kj8Ot-FVUEvuko0M-9" value="Draft" style="rounded=1;whiteSpace=wrap;html=1;arcSize=40;fontColor=#000000;fillColor=#ffffc0;strokeColor=#ff0000;" vertex="1" parent="1">
          <mxGeometry x="490" y="1070" width="120" height="40" as="geometry" />
        </mxCell>
        <mxCell id="b5D-Kj8Ot-FVUEvuko0M-10" value="Published&amp;nbsp;&lt;br style=&quot;border-color: var(--border-color);&quot;&gt;by user" style="edgeStyle=orthogonalEdgeStyle;html=1;verticalAlign=bottom;endArrow=open;endSize=8;strokeColor=#ff0000;rounded=0;entryX=0.5;entryY=0;entryDx=0;entryDy=0;" edge="1" parent="1" source="b5D-Kj8Ot-FVUEvuko0M-9" target="b5D-Kj8Ot-FVUEvuko0M-13">
          <mxGeometry x="0.4286" y="-30" relative="1" as="geometry">
            <mxPoint x="550" y="1170" as="targetPoint" />
            <mxPoint as="offset" />
          </mxGeometry>
        </mxCell>
        <mxCell id="b5D-Kj8Ot-FVUEvuko0M-11" value="" style="ellipse;html=1;shape=startState;fillColor=#000000;strokeColor=#ff0000;" vertex="1" parent="1">
          <mxGeometry x="535" y="970" width="30" height="30" as="geometry" />
        </mxCell>
        <mxCell id="b5D-Kj8Ot-FVUEvuko0M-12" value="" style="edgeStyle=orthogonalEdgeStyle;html=1;verticalAlign=bottom;endArrow=open;endSize=8;strokeColor=#ff0000;rounded=0;entryX=0.5;entryY=0;entryDx=0;entryDy=0;" edge="1" parent="1" source="b5D-Kj8Ot-FVUEvuko0M-11" target="b5D-Kj8Ot-FVUEvuko0M-9">
          <mxGeometry relative="1" as="geometry">
            <mxPoint x="550" y="1060" as="targetPoint" />
          </mxGeometry>
        </mxCell>
        <mxCell id="b5D-Kj8Ot-FVUEvuko0M-13" value="Moderation" style="rounded=1;whiteSpace=wrap;html=1;arcSize=40;fontColor=#000000;fillColor=#ffffc0;strokeColor=#ff0000;" vertex="1" parent="1">
          <mxGeometry x="490" y="1180" width="120" height="40" as="geometry" />
        </mxCell>
        <mxCell id="b5D-Kj8Ot-FVUEvuko0M-14" value="Approved&lt;br&gt;by admin" style="edgeStyle=orthogonalEdgeStyle;html=1;verticalAlign=bottom;endArrow=open;endSize=8;strokeColor=#ff0000;rounded=0;entryX=0.5;entryY=0;entryDx=0;entryDy=0;" edge="1" parent="1" source="b5D-Kj8Ot-FVUEvuko0M-13" target="b5D-Kj8Ot-FVUEvuko0M-15">
          <mxGeometry x="0.1429" y="-30" relative="1" as="geometry">
            <mxPoint x="550" y="1280" as="targetPoint" />
            <mxPoint as="offset" />
          </mxGeometry>
        </mxCell>
        <mxCell id="b5D-Kj8Ot-FVUEvuko0M-15" value="Published" style="rounded=1;whiteSpace=wrap;html=1;arcSize=40;fontColor=#000000;fillColor=#ffffc0;strokeColor=#ff0000;" vertex="1" parent="1">
          <mxGeometry x="490" y="1290" width="120" height="40" as="geometry" />
        </mxCell>
        <mxCell id="b5D-Kj8Ot-FVUEvuko0M-16" value="" style="edgeStyle=orthogonalEdgeStyle;html=1;verticalAlign=bottom;endArrow=open;endSize=8;strokeColor=#ff0000;rounded=0;entryX=0.5;entryY=0;entryDx=0;entryDy=0;" edge="1" parent="1" source="b5D-Kj8Ot-FVUEvuko0M-15" target="b5D-Kj8Ot-FVUEvuko0M-17">
          <mxGeometry relative="1" as="geometry">
            <mxPoint x="550" y="1390" as="targetPoint" />
          </mxGeometry>
        </mxCell>
        <mxCell id="b5D-Kj8Ot-FVUEvuko0M-17" value="" style="ellipse;html=1;shape=endState;fillColor=#000000;strokeColor=#ff0000;" vertex="1" parent="1">
          <mxGeometry x="535" y="1400" width="30" height="30" as="geometry" />
        </mxCell>
        <mxCell id="b5D-Kj8Ot-FVUEvuko0M-20" value="Published &lt;br&gt;by admin" style="edgeStyle=orthogonalEdgeStyle;html=1;verticalAlign=bottom;endArrow=open;endSize=8;strokeColor=#ff0000;rounded=0;entryX=1;entryY=0.5;entryDx=0;entryDy=0;exitX=1;exitY=0.5;exitDx=0;exitDy=0;" edge="1" parent="1" source="b5D-Kj8Ot-FVUEvuko0M-9" target="b5D-Kj8Ot-FVUEvuko0M-15">
          <mxGeometry y="30" relative="1" as="geometry">
            <mxPoint x="560" y="1080" as="targetPoint" />
            <mxPoint x="560" y="1010" as="sourcePoint" />
            <Array as="points">
              <mxPoint x="640" y="1090" />
              <mxPoint x="640" y="1310" />
            </Array>
            <mxPoint as="offset" />
          </mxGeometry>
        </mxCell>
        <mxCell id="b5D-Kj8Ot-FVUEvuko0M-22" value="Publication&lt;br&gt;expired" style="edgeStyle=orthogonalEdgeStyle;html=1;verticalAlign=bottom;endArrow=open;endSize=8;strokeColor=#ff0000;rounded=0;entryX=0;entryY=0.5;entryDx=0;entryDy=0;exitX=0;exitY=0.5;exitDx=0;exitDy=0;" edge="1" parent="1" source="b5D-Kj8Ot-FVUEvuko0M-15" target="b5D-Kj8Ot-FVUEvuko0M-9">
          <mxGeometry y="40" relative="1" as="geometry">
            <mxPoint x="430" y="1100" as="targetPoint" />
            <mxPoint x="430" y="1320" as="sourcePoint" />
            <Array as="points">
              <mxPoint x="460" y="1310" />
              <mxPoint x="460" y="1090" />
            </Array>
            <mxPoint as="offset" />
          </mxGeometry>
        </mxCell>
        <mxCell id="b5D-Kj8Ot-FVUEvuko0M-24" value="Review&lt;br&gt;failed" style="edgeStyle=orthogonalEdgeStyle;html=1;verticalAlign=bottom;endArrow=open;endSize=8;strokeColor=#ff0000;rounded=0;exitX=0.75;exitY=0;exitDx=0;exitDy=0;curved=1;entryX=0.75;entryY=1;entryDx=0;entryDy=0;" edge="1" parent="1" source="b5D-Kj8Ot-FVUEvuko0M-13" target="b5D-Kj8Ot-FVUEvuko0M-9">
          <mxGeometry x="-0.4286" y="-30" relative="1" as="geometry">
            <mxPoint x="590" y="1130" as="targetPoint" />
            <mxPoint x="560" y="1190" as="sourcePoint" />
            <mxPoint as="offset" />
            <Array as="points">
              <mxPoint x="580" y="1150" />
              <mxPoint x="580" y="1150" />
            </Array>
          </mxGeometry>
        </mxCell>
      </root>
    </mxGraphModel>
  </diagram>
</mxfile>
